<?xml version="1.0" encoding="utf-8"?>
<!-- Generator: Adobe Illustrator 27.5.0, SVG Export Plug-In . SVG Version: 6.00 Build 0)  -->
<svg version="1.1" xmlns="http://www.w3.org/2000/svg" xmlns:xlink="http://www.w3.org/1999/xlink" x="0px" y="0px"
	 viewBox="0 0 500 500" style="enable-background:new 0 0 500 500;" xml:space="preserve">
<g id="Background_Simple">
	<g>
		<g>
			<path style="fill:#FFE6DE;" d="M244.041,40.398c-39.466,5.583-78.385,17.427-112.324,38.49
				c-33.939,21.063-62.721,51.75-78.384,89.206C36.102,209.3,35.478,256.244,41.965,300.931c5.06,34.852,14.93,70.427,37.533,97.19
				c24.429,28.925,61.452,44.322,98.314,48.39c36.862,4.068,73.912-2.16,109.924-10.419c43.261-9.922,87.328-23.622,120.471-53.555
				c37.408-33.785,56.796-86.152,55.469-137.679c-1.327-51.527-18.406-95.047-50.328-135.297
				c-18.572-23.416-47.099-40.247-73.711-52.997C313.026,43.813,272.002,36.403,244.041,40.398"/>
		</g>
	</g>
	<g>
		<path style="fill:#FFFFFF;" d="M303.491,116.926c0,0,26.125-14.264,10.691-34.161c0,0,11.214,10.577,21.95,4.81
			c10.736-5.766,16.934-15.304,16.934-15.304s-3.501,18.891,6.707,25.735c14.028,9.406,22.89,6.722,22.89,6.722
			s-10.751,9.389-12.253,19.923s7.27,16.646,7.27,16.646s-16.56-9.94-27.86-3.307c-11.299,6.633-16.429,17.688-16.429,17.688
			s4.189-17.832-10.767-29.607C307.667,114.296,303.491,116.926,303.491,116.926z"/>
	</g>
	<g>
		<path style="fill:#FFFFFF;" d="M91.276,231.105c0,0,26.125-14.264,10.691-34.161c0,0,11.214,10.577,21.95,4.81
			c10.736-5.766,16.934-15.304,16.934-15.304s-3.501,18.891,6.707,25.735c14.028,9.406,22.89,6.722,22.89,6.722
			s-10.751,9.389-12.253,19.923c-1.502,10.534,7.27,16.646,7.27,16.646s-16.561-9.941-27.86-3.307
			c-11.299,6.633-16.428,17.688-16.428,17.688s4.189-17.832-10.767-29.608C95.452,228.475,91.276,231.105,91.276,231.105z"/>
	</g>
	<g>
		<path style="fill:#FFFFFF;" d="M100.681,327.67c0.065,1.321,1.654,28.112,1.654,28.112s-26.789,0-18.852,6.284
			c7.938,6.284,18.852,16.206,18.852,16.206s-16.022,15.214-10.161,15.214c5.861,0,22.729-2.977,22.729-2.977
			s5.953,31.42,9.591,22.49c3.638-8.93,6.615-22.49,6.615-22.49s44.318-1.985,35.388-5.292c-8.93-3.307-28.112-14.084-28.112-14.084
			s20.175-34.864,13.56-33.872c-6.615,0.992-27.096,15.214-27.096,15.214S100.537,324.738,100.681,327.67z"/>
	</g>
	<g>
		<path style="fill:#FFFFFF;" d="M242.159,103.603c0.186-0.786,3.79-16.764,3.79-16.764s15.708,4.536,12.118-0.493
			c-3.59-5.029-8.31-12.694-8.31-12.694s11.971-6.208,8.534-7.2c-3.437-0.992-13.831-2.103-13.831-2.103s1.829-19.431-1.816-14.811
			c-3.645,4.62-7.686,12.067-7.686,12.067s-26.322-6.34-21.646-2.889c4.676,3.451,14.099,13.018,14.099,13.018
			s-17.733,17.027-13.686,17.565c4.047,0.538,18.464-4.333,18.464-4.333S241.747,105.346,242.159,103.603z"/>
	</g>
	<g>
		<path style="fill:#FFFFFF;" d="M392.899,333.148l2.327-7.086l2.643,7.086c0,0,5.279,0.898,5.341,1.39
			c0.06,0.481-5.053,1.988-5.053,1.988s-2.146,6.87-2.93,5.314c-0.784-1.556-1.546-5-1.546-5s-6.648-1.381-6.648-2.059
			C387.032,334.048,392.899,333.148,392.899,333.148z"/>
	</g>
	<g>
		<g>
			<g>
				<path style="fill:#FFFFFF;" d="M398.971,239.366c-2.002-0.313-8.294,0.249-8.294,0.249l-1.416-1.795
					c0,0,4.232-7.138,3.196-8.508c-1.035-1.37-8.47-5.718-9.711-5.181c-1.241,0.537-4.965,5.785-4.965,5.785l-2.607-0.346
					c0,0-1.015-7.226-3.951-7.085c-2.936,0.141-8.696,2.045-9.848,2.789c-1.152,0.744,0.579,7.807,0.579,7.807l-1.901,1.521
					l-0.818-0.392c0,0-5.647-3.529-7.26-2.319c-1.613,1.21-5.445,9.075-5.142,10.083c0.303,1.008,6.193,5.243,6.193,5.243
					l-0.445,2.016c0,0-6.655,2.016-6.957,3.932c-0.302,1.916,0.907,9.78,2.924,9.982c2.017,0.202,8.268-0.706,8.268-0.706
					l1.512,1.714c0,0-3.832,7.36-2.722,8.671c1.109,1.311,8.772,5.243,9.982,4.638c1.21-0.605,4.638-6.05,4.638-6.05l2.621,0.202
					c0,0,1.411,7.159,4.336,6.856c2.924-0.302,8.57-2.521,9.68-3.327c1.109-0.807-1.008-7.764-1.008-7.764l1.916-1.714
					c0,0,5.646,3.428,7.764,2.016c2.118-1.411,5.546-8.066,5.042-9.074c-0.504-1.008-5.646-5.243-5.646-5.243l0.027-0.538
					c1.787-0.499,6.063-1.839,6.384-3.336C401.748,247.598,400.974,239.679,398.971,239.366z M373.512,259.399
					c-5.031,0-9.11-4.079-9.11-9.11c0-5.032,4.079-9.11,9.11-9.11c5.031,0,9.11,4.079,9.11,9.11
					C382.622,255.32,378.544,259.399,373.512,259.399z"/>
			</g>
		</g>
	</g>
	<g>
		<g>
			<path style="fill:#FFFFFF;" d="M425.457,218.965c-1.249,0-2.496-0.114-3.72-0.346c-4.896-0.927-9.106-3.806-11.855-8.106
				c-2.707-4.233-3.679-9.304-2.736-14.281c0.921-4.863,3.755-8.945,7.98-11.494c4.095-2.471,9.113-3.311,14.128-2.359
				c10.371,1.965,17.263,11.719,15.364,21.744c-0.923,4.872-3.893,9.068-8.362,11.813
				C433.026,217.92,429.234,218.965,425.457,218.965z M425.226,183.12c-3.416,0-6.702,0.879-9.52,2.579
				c-3.948,2.383-6.596,6.198-7.457,10.743c-0.89,4.694,0.026,9.476,2.578,13.467c2.582,4.037,6.53,6.739,11.118,7.609
				c4.663,0.881,9.662-0.041,13.724-2.536c4.197-2.578,6.984-6.508,7.847-11.066c1.785-9.416-4.708-18.582-14.47-20.432
				C427.766,183.24,426.487,183.12,425.226,183.12z"/>
		</g>
		<g>
			<path style="fill:#FFFFFF;" d="M412.571,208.638c2.152,7.464,12.286,9.997,22.297,4.691c1.326-0.703,0.381-8.903-7.688-10.274
				C422.885,202.325,415.148,202.367,412.571,208.638z"/>
		</g>
		<g>
			<path style="fill:#FFFFFF;" d="M434.761,195.484c-1.638,5.954-6.202,6.51-10.751,5.648c-4.549-0.862-6.134-4.561-5.35-8.699
				c0.784-4.137,4.736-6.863,9.285-6.001C432.493,187.294,435.878,191.424,434.761,195.484z"/>
		</g>
	</g>
	<g>
		<path style="fill:#FFFFFF;" d="M68.974,203.665l2.327-7.086l2.642,7.086c0,0,5.279,0.898,5.341,1.39
			c0.06,0.481-5.053,1.988-5.053,1.988s-2.146,6.87-2.93,5.314c-0.785-1.556-1.546-5-1.546-5s-6.648-1.381-6.648-2.059
			C63.107,204.565,68.974,203.665,68.974,203.665z"/>
	</g>
	<g>
		<path style="fill:#FFFFFF;" d="M70.414,320.837l2.327-7.085l2.643,7.085c0,0,5.279,0.898,5.341,1.39
			c0.06,0.481-5.053,1.988-5.053,1.988s-2.146,6.87-2.93,5.314c-0.785-1.556-1.546-5-1.546-5s-6.648-1.381-6.648-2.059
			C64.548,321.737,70.414,320.837,70.414,320.837z"/>
	</g>
	<g>
		<path style="fill:#FFFFFF;" d="M426.348,272.591l2.327-7.086l2.643,7.086c0,0,5.279,0.898,5.341,1.39
			c0.06,0.481-5.053,1.988-5.053,1.988s-2.146,6.87-2.93,5.314c-0.785-1.556-1.546-5-1.546-5s-6.648-1.381-6.648-2.059
			C420.481,273.49,426.348,272.591,426.348,272.591z"/>
	</g>
</g>
<g id="Pictures">
	<g>
		<g>
			<g>
				<g>
					<path style="fill:#A0D2F4;" d="M413.088,304.93c-11.453-5.541-47.177-12.434-49.796-7.347
						c-2.639,5.124-10.099,40.774-7.711,46.254c2.388,5.48,48.433,13.053,51.683,9.493
						C410.514,349.771,417.229,306.934,413.088,304.93z"/>
				</g>
			</g>
			<g>
				<g>
					<path style="fill:#8380FF;" d="M407.527,319.111c-2.802,4.244-8.514,5.414-12.758,2.612c-4.244-2.801-5.414-8.513-2.613-12.758
						c2.802-4.244,8.513-5.414,12.758-2.612C409.159,309.155,410.329,314.866,407.527,319.111z"/>
				</g>
			</g>
			<g>
				<g>
					<path style="fill:#8380FF;" d="M407.264,353.33c1.376-1.507,3.374-10.06,4.906-19.571c-4.671-4.853-12.03-7.153-18.576-5.391
						c-2.475,0.666-5.174,1.825-7.462,0.672c-1.765-0.889-2.632-2.862-3.637-4.564c-2.747-4.652-7.479-8.086-12.753-9.255
						c-3.746-0.83-7.725-0.504-11.313,0.847c-2.344,11.546-4.218,24.624-2.848,27.769
						C357.969,349.316,404.013,356.889,407.264,353.33z"/>
				</g>
			</g>
		</g>
		<g>
			<g>
				<g>
					<path style="fill:#FFFFFF;" d="M413.58,303.417c-8.14-3.803-17.343-5.705-26.133-7.301c-6.556-1.19-16.732-3.923-23.237-1.107
						c-4.555,1.972-5.112,10.631-6.054,14.774c-2.012,8.853-3.873,17.942-4.497,27.014c-0.354,5.141-0.361,8.579,4.623,10.879
						c6.698,3.091,14.416,4.393,21.621,5.69c7.688,1.383,15.928,2.937,23.777,2.422c4.901-0.321,5.844-2.62,7.075-7.122
						c2.452-8.959,3.782-18.385,4.682-27.613c0.372-3.817,2.637-14.701-1.472-17.451c-1.702-1.139-3.458,1.516-1.753,2.656
						c2.274,1.522,0.184,13.324-0.06,15.674c-0.755,7.269-1.857,14.542-3.44,21.679c-0.798,3.6-0.831,8.616-4.86,8.998
						c-6.309,0.598-13.135-0.695-19.341-1.673c-7.081-1.115-14.233-2.484-21.06-4.708c-1.713-0.558-4.91-1.216-6.098-2.703
						c-1.108-1.387-0.662-4.016-0.573-5.678c0.426-7.977,2.015-15.97,3.675-23.765c0.658-3.091,1.36-6.175,2.167-9.231
						c0.416-1.574,0.86-5.422,2.163-6.604c1.752-1.588,6.467-0.872,8.569-0.756c4.952,0.274,9.896,1.04,14.764,1.961
						c8.239,1.559,16.841,3.425,24.477,6.992C414.445,307.308,415.418,304.275,413.58,303.417z"/>
				</g>
			</g>
		</g>
		<g>
			<path style="fill:#421B36;" d="M400.471,356.527c-6.619,0-13.344-1.212-19.879-2.39l-1.694-0.305
				c-7.073-1.268-14.387-2.581-20.885-5.578c-5.226-2.411-5.371-5.954-4.991-11.5c0.63-9.155,2.541-18.441,4.513-27.113
				c0.172-0.757,0.33-1.667,0.504-2.66c0.798-4.564,1.89-10.813,5.918-12.557c5.74-2.485,13.951-0.846,20.546,0.472
				c1.081,0.215,2.108,0.421,3.057,0.593c8.343,1.515,17.941,3.457,26.265,7.341c0.139,0.041,0.324,0.129,0.493,0.244
				c3.818,2.554,2.693,10.91,2.019,15.902c-0.112,0.838-0.212,1.568-0.266,2.14c-1.089,11.169-2.584,19.977-4.702,27.719
				c-1.225,4.475-2.251,7.236-7.65,7.59C402.642,356.495,401.558,356.527,400.471,356.527z M371.311,294.408
				c-2.501,0-4.854,0.322-6.848,1.186c-3.396,1.47-4.421,7.328-5.167,11.606c-0.178,1.017-0.341,1.948-0.518,2.724
				c-1.959,8.622-3.859,17.85-4.483,26.918c-0.354,5.134-0.33,8.14,4.254,10.255c6.349,2.929,13.581,4.228,20.575,5.481l1.696,0.305
				c7.533,1.358,15.328,2.761,22.818,2.269c4.356-0.285,5.243-2.052,6.503-6.654c2.099-7.671,3.58-16.412,4.662-27.508
				c0.057-0.583,0.158-1.329,0.273-2.186c0.593-4.389,1.693-12.559-1.465-14.672v-0.001c-0.073-0.048-0.153-0.087-0.253-0.12
				c-8.256-3.847-17.759-5.769-26.022-7.269c-0.957-0.174-1.992-0.381-3.08-0.598C380.214,295.339,375.552,294.408,371.311,294.408z
				"/>
		</g>
	</g>
	<g>
		<g>
			<g>
				<g>
					<path style="fill:#A0D2F4;" d="M393.935,146.609c-10.129-3.172-40.453-4.489-41.993,0.029
						c-1.551,4.551-3.346,34.884-0.705,39.114c2.641,4.23,41.566,4.846,43.812,1.511
						C397.296,183.927,397.598,147.755,393.935,146.609z"/>
				</g>
			</g>
			<g>
				<g>
					<path style="fill:#8380FF;" d="M391.08,158.991c-1.793,3.845-6.363,5.509-10.209,3.717s-5.509-6.363-3.717-10.209
						c1.793-3.846,6.363-5.509,10.209-3.717S392.873,155.146,391.08,158.991z"/>
				</g>
			</g>
			<g>
				<g>
					<path style="fill:#8380FF;" d="M395.049,187.262c0.951-1.412,1.554-8.714,1.654-16.751c-4.449-3.433-10.803-4.431-15.99-2.177
						c-1.961,0.852-4.046,2.139-6.076,1.467c-1.565-0.518-2.522-2.04-3.56-3.321c-2.836-3.503-7.161-5.758-11.657-6.077
						c-3.193-0.227-6.436,0.529-9.232,2.083c-0.522,9.815-0.469,20.837,1.048,23.265
						C353.878,189.981,392.803,190.598,395.049,187.262z"/>
				</g>
			</g>
		</g>
		<g>
			<g>
				<g>
					<path style="fill:#FFFFFF;" d="M394.156,145.299c-7.183-2.143-15.01-2.586-22.459-2.828c-5.556-0.18-14.288-1.19-19.312,1.93
						c-3.518,2.184-2.918,9.398-3.188,12.933c-0.578,7.552-1.001,15.28-0.407,22.843c0.337,4.286,0.751,7.124,5.146,8.412
						c5.905,1.731,12.434,1.862,18.539,2.05c6.513,0.201,13.504,0.475,19.918-0.91c4.005-0.865,4.502-2.877,4.967-6.743
						c0.927-7.694,0.872-15.635,0.486-23.361c-0.16-3.196,0.378-12.454-3.35-14.221c-1.544-0.732-2.668,1.674-1.122,2.407
						c2.063,0.978,1.782,10.973,1.868,12.942c0.266,6.091,0.247,12.228-0.186,18.311c-0.218,3.068,0.368,7.212-2.91,8.02
						c-5.134,1.266-10.925,1.033-16.165,0.986c-5.98-0.054-12.049-0.308-17.956-1.309c-1.482-0.251-4.2-0.402-5.363-1.485
						c-1.084-1.009-1.037-3.233-1.167-4.616c-0.624-6.635-0.291-13.426,0.125-20.062c0.165-2.631,0.367-5.262,0.659-7.883
						c0.15-1.35,0.046-4.58,0.977-5.714c1.252-1.525,5.23-1.511,6.979-1.672c4.12-0.38,8.294-0.353,12.424-0.188
						c6.989,0.278,14.317,0.766,21.055,2.776C395.345,148.405,395.778,145.783,394.156,145.299z"/>
				</g>
			</g>
		</g>
		<g>
			<path style="fill:#421B36;" d="M389.835,190.732c-5.462,0.81-11.16,0.632-16.697,0.46l-1.435-0.044
				c-5.992-0.181-12.188-0.369-17.918-2.048c-4.608-1.351-5.161-4.257-5.525-8.88c-0.6-7.632-0.16-15.529,0.407-22.927
				c0.049-0.646,0.068-1.416,0.091-2.257c0.1-3.864,0.237-9.154,3.348-11.086c4.433-2.753,11.409-2.405,17.013-2.124
				c0.918,0.045,1.791,0.089,2.595,0.115c7.07,0.23,15.228,0.658,22.573,2.845c0.12,0.017,0.283,0.067,0.437,0.141
				c3.463,1.641,3.557,8.674,3.612,12.876c0.01,0.705,0.017,1.32,0.042,1.798c0.468,9.35,0.311,16.802-0.489,23.45
				c-0.463,3.843-0.972,6.247-5.384,7.199C391.623,190.439,390.732,190.599,389.835,190.732z M358.171,143.036
				c-2.064,0.306-3.966,0.86-5.506,1.817c-2.623,1.629-2.751,6.589-2.845,10.21c-0.022,0.861-0.043,1.649-0.094,2.311
				c-0.562,7.355-1.001,15.203-0.406,22.762c0.336,4.28,0.724,6.758,4.765,7.943c5.598,1.641,11.725,1.827,17.65,2.006l1.437,0.044
				c6.382,0.199,12.987,0.403,19.108-0.919c3.56-0.768,4.076-2.335,4.553-6.287c0.794-6.587,0.947-13.982,0.482-23.271
				c-0.024-0.488-0.032-1.117-0.042-1.837c-0.048-3.695-0.139-10.572-3.004-11.928l0-0.001c-0.066-0.031-0.137-0.053-0.223-0.068
				c-7.284-2.164-15.361-2.588-22.364-2.815c-0.811-0.027-1.69-0.071-2.615-0.116C365.632,142.715,361.671,142.517,358.171,143.036z
				"/>
		</g>
	</g>
	<g>
		<g>
			<g>
				<g>
					<path style="fill:#A0D2F4;" d="M106.731,233.617c-12.599,1.769-46.118,15.919-45.464,21.603
						c0.658,5.726,14.296,39.499,19.33,42.723c5.033,3.224,47.506-16.104,48.226-20.87
						C129.542,272.307,111.287,232.977,106.731,233.617z"/>
				</g>
			</g>
			<g>
				<g>
					<path style="fill:#8380FF;" d="M110.001,248.494c0.034,5.085-4.061,9.236-9.147,9.27c-5.086,0.034-9.236-4.061-9.27-9.147
						c-0.034-5.086,4.061-9.236,9.147-9.269C105.817,239.313,109.967,243.408,110.001,248.494z"/>
				</g>
			</g>
			<g>
				<g>
					<path style="fill:#8380FF;" d="M128.822,277.073c0.305-2.018-2.794-10.236-6.813-18.992c-6.582-1.433-13.976,0.75-18.435,5.857
						c-1.686,1.93-3.283,4.395-5.827,4.71c-1.961,0.243-3.78-0.913-5.561-1.768c-4.871-2.337-10.713-2.557-15.746-0.594
						c-3.574,1.394-6.699,3.879-8.929,6.998c4.477,10.898,10.197,22.807,13.086,24.658
						C85.63,301.167,128.102,281.839,128.822,277.073z"/>
				</g>
			</g>
		</g>
		<g>
			<g>
				<g>
					<path style="fill:#FFFFFF;" d="M106.298,232.085c-8.88,1.37-17.585,4.91-25.776,8.475c-6.11,2.659-16.085,6.051-19.924,12.01
						c-2.688,4.173,1.668,11.678,3.191,15.645c3.254,8.475,6.765,17.063,11.294,24.948c2.567,4.469,4.473,7.329,9.894,6.467
						c7.285-1.159,14.423-4.371,21.131-7.303c7.157-3.128,14.869-6.422,21.104-11.217c3.893-2.994,3.398-5.429,1.916-9.855
						c-2.948-8.809-7.087-17.38-11.474-25.549c-1.815-3.379-5.989-13.682-10.933-13.68c-2.049,0.001-2.03,3.183,0.021,3.183
						c2.736-0.001,7.567,10.968,8.672,13.057c3.417,6.46,6.549,13.116,9.205,19.927c1.34,3.435,4.104,7.621,0.969,10.18
						c-4.91,4.008-11.301,6.731-17.001,9.372c-6.504,3.013-13.208,5.856-20.119,7.807c-1.733,0.489-4.756,1.722-6.571,1.147
						c-1.692-0.536-2.784-2.969-3.636-4.4c-4.084-6.865-7.212-14.391-10.17-21.791c-1.173-2.934-2.306-5.888-3.336-8.876
						c-0.531-1.539-2.303-4.984-1.877-6.69c0.572-2.295,4.889-4.323,6.7-5.396c4.267-2.528,8.801-4.642,13.359-6.586
						c7.713-3.289,15.899-6.525,24.229-7.81C109.182,234.837,108.303,231.776,106.298,232.085z"/>
				</g>
			</g>
		</g>
		<g>
			<path style="fill:#421B36;" d="M83.125,300.426c-4.262,0-6.168-2.72-8.595-6.945c-4.57-7.956-8.149-16.736-11.337-25.036
				c-0.279-0.727-0.654-1.574-1.063-2.497c-1.875-4.234-4.444-10.033-2.068-13.722c3.389-5.261,11.123-8.466,17.337-11.043
				c1.017-0.421,1.984-0.822,2.868-1.207c7.777-3.384,16.833-7.111,25.909-8.516c0.147-0.044,0.343-0.072,0.545-0.072l0,0h0.001
				c4.594,0,8.306,7.566,10.525,12.087c0.374,0.761,0.698,1.423,0.97,1.93c5.311,9.888,8.97,18.038,11.517,25.649
				c1.473,4.399,2.157,7.262-2.132,10.561c-6.083,4.678-13.411,7.879-20.498,10.973l-1.588,0.695
				c-6.577,2.878-13.378,5.854-20.437,6.977C84.374,300.371,83.726,300.426,83.125,300.426z M106.72,232.663
				c-0.087,0-0.173,0.013-0.28,0.042c-8.995,1.395-17.961,5.088-25.664,8.439c-0.891,0.388-1.865,0.792-2.889,1.216
				c-6.051,2.508-13.581,5.631-16.753,10.555c-2.004,3.112,0.404,8.547,2.162,12.516c0.419,0.946,0.802,1.813,1.088,2.557
				c3.169,8.253,6.726,16.977,11.252,24.858c2.564,4.462,4.262,6.948,9.241,6.155c6.898-1.097,13.622-4.039,20.126-6.887l1.59-0.695
				c7.016-3.064,14.271-6.232,20.231-10.815c3.46-2.661,3.214-4.622,1.7-9.146c-2.523-7.54-6.156-15.628-11.431-25.451
				c-0.278-0.517-0.61-1.193-0.991-1.969C114.151,240.062,110.519,232.663,106.72,232.663
				C106.721,232.663,106.721,232.663,106.72,232.663L106.72,232.663z"/>
		</g>
	</g>
</g>
<g id="Device">
	<g>
		<g>
			<g>
				<g>
					<path style="fill:#421B36;" d="M149.248,100.067c-0.783,6.189-19.528,331.713-1.105,340.481
						c18.87,8.981,183.759,19.202,201.713,6.93c13.273-9.073,13.952-260.264,11.06-331.257c-0.432-10.599-1.69-26.981-20.775-29.339
						c-8.385-1.036-126.644-14.126-176.995-4.958C151.908,83.969,149.664,96.779,149.248,100.067z"/>
				</g>
			</g>
			<g>
				<g>
					<path style="fill:#FFFFFF;" d="M340.809,432.213c-8.926,11.863-169.867-0.997-179.381-9.59
						c-9.121-8.238-5.134-202.563-3.608-281.503c0.376-19.509,0.712-32.07,0.852-33.211c0.381-3.041,2.459-14.899,12.856-16.789
						c46.58-8.48,151.301,2.091,159.055,3.053c17.651,2.182,20.304,23.987,20.701,33.786c0.221,5.329,0.396,11.729,0.514,18.993
						C353.243,229.041,349.007,421.298,340.809,432.213z"/>
				</g>
			</g>
			<g>
				<path style="fill:#8380FF;" d="M351.797,146.952l-193.978-5.832c0.376-19.509,0.712-32.07,0.852-33.211
					c0.381-3.041,2.459-14.899,12.856-16.789c46.58-8.48,151.301,2.091,159.055,3.053c17.651,2.182,20.304,23.987,20.701,33.786
					C351.504,133.288,351.679,139.688,351.797,146.952z"/>
			</g>
			<g>
				<g>
					<path style="fill:#421B36;" d="M214.476,86.308c0,0-0.605,8.608,6.205,10.569c6.81,1.961,71.436,5.256,75.384,2.653
						c3.948-2.603,5.491-9.351,5.491-9.351l-85.505-3.766"/>
				</g>
			</g>
		</g>
		<g>
			<g>
				<path style="fill:#421B36;" d="M314.713,121.954c6.734,0.447,13.467,0.895,20.201,1.342c1.024,0.068,1.02-1.526,0-1.593
					c-6.734-0.447-13.467-0.895-20.201-1.342C313.69,120.293,313.694,121.887,314.713,121.954L314.713,121.954z"/>
			</g>
		</g>
		<g>
			<g>
				<path style="fill:#421B36;" d="M314.519,126.893c6.733,0.447,13.467,0.895,20.201,1.342c1.024,0.068,1.02-1.526,0-1.593
					c-6.734-0.447-13.467-0.895-20.201-1.342C313.496,125.231,313.5,126.825,314.519,126.893L314.519,126.893z"/>
			</g>
		</g>
		<g>
			<g>
				<path style="fill:#421B36;" d="M314.325,131.831c6.733,0.447,13.467,0.895,20.201,1.342c1.024,0.068,1.02-1.526,0-1.593
					c-6.734-0.447-13.467-0.895-20.201-1.342C313.301,130.169,313.305,131.763,314.325,131.831L314.325,131.831z"/>
			</g>
		</g>
		<g>
			<g>
				<path style="fill:#A0D2F4;" d="M207.323,398.201c-0.657,9.892-10.153,17.021-20.045,16.364
					c-9.892-0.657-17.054-9.658-16.397-19.55c0.657-9.892,9.474-16.301,19.366-15.643
					C200.139,380.028,207.98,388.309,207.323,398.201z"/>
			</g>
			<g>
				<path style="fill:#8380FF;" d="M177.104,406.452c2.989,7.036,13.19,8.307,22.339,1.935c1.212-0.844-0.685-8.743-8.731-9.123
					C186.43,399.061,178.876,400.021,177.104,406.452z"/>
			</g>
			<g>
				<path style="fill:#8380FF;" d="M197.219,390.968c-0.893,6.011-5.286,7.096-9.832,6.794c-4.546-0.302-6.534-3.728-6.259-7.863
					c0.275-4.135,3.812-7.267,8.357-6.965C194.031,383.236,197.828,386.869,197.219,390.968z"/>
			</g>
		</g>
		<g>
			<path style="fill:#8380FF;" d="M217.514,387.681c0,0-1.473,5.455-0.462,6.95c1.011,1.495,31.364,3.106,32.726,1.698
				s0.935-6.918-0.476-7.171C247.893,388.906,217.834,386.328,217.514,387.681z"/>
		</g>
		<g>
			<g>
				<path style="fill:#421B36;" d="M216.012,403.673c24.44,1.623,48.92,2.615,73.412,2.96c6.967,0.098,13.935,0.143,20.903,0.138
					c1.025-0.001,1.027-1.594,0-1.593c-24.494,0.015-48.986-0.601-73.448-1.864c-6.959-0.359-13.915-0.772-20.867-1.234
					C214.988,402.012,214.992,403.605,216.012,403.673L216.012,403.673z"/>
			</g>
		</g>
		<g>
			<g>
				<path style="fill:#421B36;" d="M215.658,408.993c15.679,1.041,31.374,1.822,47.078,2.341c1.026,0.034,1.024-1.56,0-1.594
					c-15.705-0.52-31.4-1.301-47.078-2.341C214.635,407.331,214.639,408.925,215.658,408.993L215.658,408.993z"/>
			</g>
		</g>
		<g>
			<g>
				<path style="fill:#8380FF;" d="M249.031,366.785c-0.14,2.105-1.959,3.697-4.064,3.557c-2.104-0.14-4.167-1.99-4.028-4.095
					c0.14-2.105,2.429-3.666,4.534-3.526C247.579,362.861,249.171,364.681,249.031,366.785z"/>
			</g>
			<g>
				<path style="fill:#A0D2F4;" d="M259.176,367.459c-0.14,2.104-1.959,3.697-4.064,3.557c-2.104-0.14-4.168-1.99-4.028-4.095
					c0.14-2.104,2.429-3.666,4.534-3.526C257.723,363.535,259.316,365.354,259.176,367.459z"/>
			</g>
			<g>
				<path style="fill:#A0D2F4;" d="M269.486,368.144c-0.14,2.104-1.959,3.697-4.064,3.557c-2.105-0.14-4.168-1.99-4.028-4.095
					s2.429-3.666,4.534-3.526C268.033,364.22,269.625,366.039,269.486,368.144z"/>
			</g>
		</g>
		<g>
			<path style="fill:#8380FF;" d="M329.805,404.043c-0.198,2.978-2.773,5.233-5.751,5.035c-2.978-0.198-5.233-2.773-5.035-5.751
				c0.198-2.978,2.773-5.233,5.751-5.035C327.749,398.489,330.003,401.064,329.805,404.043z"/>
		</g>
		<g>
			<path style="fill:#A0D2F4;" d="M172.382,116.655c0,0-0.743,7.032,1.292,9.652c2.035,2.62,14.185,2.599,14.844,0.986
				c0.659-1.613,0.639-9.621-0.882-11.655C186.114,113.604,172.632,112.903,172.382,116.655z"/>
		</g>
	</g>
</g>
<g id="Speech_Bubble">
	<g>
		<g>
			<g>
				<g>
					<path style="fill:#8380FF;" d="M132.481,137.403c-2.417-6.885-7.976-11.116-17.328-9.718c0,0-10.647,1.996-16.95,3.651
						c-6.302,1.655-12.688,5.214-15.072,11.278c-1.823,4.637-0.982,9.848,0.003,14.733c0.732,3.63,1.548,7.298,3.266,10.578
						c1.718,3.281,4.463,6.18,7.989,7.311c3.905,1.254,8.134,0.214,12.101-0.829c2.137-0.562,4.274-1.124,6.411-1.686
						c1.645,3.703,9.954,8.914,11.535,5.57c0.599-1.266-2.612-5.861-3.838-7.594c2.161-0.568,4.321-1.136,6.482-1.704
						c3.781-0.994,7.989-2.317,9.78-5.792c1.245-2.415,0.617-6.862,0.329-9.564L132.481,137.403z"/>
				</g>
			</g>
		</g>
		<g>
			<g>
				<g>
					<path style="fill:#FFFFFF;" d="M119.168,141.788c-0.491-2.421-2.4-4.75-5.452-4.043c-1.401,0.324-2.602,1.25-3.375,2.462
						c-1.663,2.608-1.458,5.778-1.225,8.774c-0.952-1.895-1.92-3.813-3.326-5.402c-1.759-1.988-4.32-3.442-7.068-2.876
						c-1.269,0.261-2.428,1.002-3.099,2.11c-1.485,2.45-0.105,5.224,1.343,7.465c3.276,5.07,8.041,9.855,12.683,14.011
						c1.095,0.981,2.828,0.65,3.48-0.668c2.445-4.941,5.08-11.507,5.903-16.879C119.283,145.1,119.498,143.416,119.168,141.788z"/>
				</g>
			</g>
		</g>
	</g>
</g>
<g id="Character">
	<g>
		<g>
			<g>
				<path style="fill:#A0D2F4;" d="M363.285,236.73c0,44.265-23.662,82.823-58.634,102.91c-16.358,9.402-35.217,14.76-55.258,14.76
					c-9.622,0-18.967-1.237-27.898-3.567C172.083,337.991,135.5,291.776,135.5,236.73c0-64.987,50.992-117.671,113.893-117.671
					C312.293,119.059,363.285,171.743,363.285,236.73z"/>
			</g>
			<g>
				<path style="fill:#421B36;" d="M335.226,188.439c-4.291-10.041-16.095-16.082-26.328-13.13
					c1.095-6.007-1.509-12.563-6.374-16.042c-4.864-3.479-11.721-3.69-16.777-0.516c-0.755-5.302-4.786-9.949-9.806-11.301
					c-5.02-1.352-13.485,0.177-15.514,6.813l2.812,11.116l34.573,53.563c8.902,5.992,21.457,5.737,29.875-0.959
					C336.105,211.287,339.517,198.481,335.226,188.439z"/>
			</g>
			<g>
				<path style="fill:#421B36;" d="M258.452,232.188l-29.128-75.98c-7.255-1.846-14.911,0.221-20.382,5.501
					c-5.47,5.281-8.655,13.68-8.479,22.359c-6.265,0.63-11.945,5.038-14.801,11.486c-2.857,6.449-2.818,14.774,0.102,21.696
					c-9.501,4.973-13.803,19.953-9.115,31.742c-3.958,0.776-6.621,5.279-7.123,10.014c-0.502,4.734,0.752,9.635,2.302,14.225
					c2.301,6.814,5.486,13.619,10.552,17.965c5.067,4.346,12.382,5.501,16.835,1.062c1.036,8.918,6.792,17.225,14.046,20.271
					c7.254,3.045,15.597,0.657,20.357-5.828c4.498,5.234,11.665,6.003,17.079,3.212c5.413-2.791,9.272-8.515,11.971-14.718
					C270.926,276.219,269.243,251.058,258.452,232.188z"/>
			</g>
			<g>
				<path style="fill:#8380FF;" d="M266.122,158.296c-0.273-1.323-1.2-2.384-2.105-3.363c-1.493-1.614-3.413-3.323-5.532-2.887
					c-1.737,0.357-2.877,2.031-3.834,3.57l6.625,9.764c1.276-0.81,2.574-1.639,3.552-2.81
					C265.808,161.398,266.435,159.809,266.122,158.296z"/>
			</g>
			<g>
				<g>
					<g>
						<g>
							<path style="fill:#944D4D;" d="M253.143,166.827c-15.606-16.944-43.707-10.338-50.744,11.893
								c-2.225,7.031-2.399,15.956-0.572,27.574c5.1,32.414,31.732,28.548,31.732,28.548l8.064,25.968l31.96-12.515l-11.782-32.962
								c0,0,0.364-24.73-3.697-39.775C257.201,172.21,255.428,169.308,253.143,166.827z"/>
						</g>
					</g>
					<g>
						<g>
							<path style="fill:#421B36;" d="M212.488,186.114c0.141,1.195,1.099,2.057,2.142,1.926c1.042-0.131,1.774-1.206,1.633-2.4
								c-0.141-1.195-1.1-2.057-2.142-1.926C213.078,183.844,212.347,184.919,212.488,186.114z"/>
						</g>
					</g>
					<g>
						<g>
							<path style="fill:#421B36;" d="M233.945,183.937c0.141,1.195,1.1,2.057,2.142,1.926c1.042-0.131,1.774-1.206,1.633-2.4
								c-0.141-1.195-1.1-2.057-2.142-1.926C234.536,181.668,233.805,182.743,233.945,183.937z"/>
						</g>
					</g>
					<g>
						<g>
							<g>
								<path style="fill:#421B36;" d="M242.607,173.403c-2.115-0.95-4.895-1.209-7.174-1.065c-2.118,0.134-3.942,1.019-5.968,1.499
									c-1.169,0.276-1.68-1.459-0.838-2.135c4.233-3.403,10.292-1.965,14.483,0.502
									C243.798,172.609,243.373,173.746,242.607,173.403L242.607,173.403z"/>
							</g>
						</g>
					</g>
					<g>
						<g>
							<g>
								<path style="fill:#421B36;" d="M229.617,202.184c-0.16,4.541-5.918,6.375-9.43,4.846c-1.182-0.515-0.675-2.675,0.637-2.307
									c1.669,0.468,3.272,0.654,4.881-0.184c1.246-0.649,2.182-1.818,3.165-2.812C229.199,201.395,229.63,201.821,229.617,202.184
									L229.617,202.184z"/>
							</g>
						</g>
					</g>
					<g>
						<g>
							<path style="fill:#421B36;" d="M270.973,248.844c-3.663-6.636-9.241-15.407-11.491-25.025
								c-2.25-9.618-2.92-34.325-5.582-43.378c-2.662-9.053-21.199-18.868-28.668-22.502l-0.291-2.475
								c8.245-4.197,17.968-4.719,26.6-1.457c4.868,1.839,9.596,4.308,13.389,7.958c3.187,3.067,5.614,6.865,8.009,10.623
								c4.438,6.964,39.789,72.32,1.353,77.844"/>
						</g>
					</g>
					<g>
						<path style="fill:#421B36;" d="M257.533,160.106c7.723,3.389,13.721,10.366,15.835,18.419
							c6.661-1.375,13.952,0.653,18.893,5.255c4.941,4.602,7.395,11.651,6.36,18.265c9.263-1.202,19.034,2.427,25.175,9.351
							c6.141,6.924,8.469,16.936,5.998,25.796c2.928,4.204,5.596,8.687,6.848,13.631c1.252,4.945,0.952,10.443-1.761,14.784
							s-8.121,7.194-13.185,6.114c2.198,9.224-3.298,19.624-12.238,23.157c-8.94,3.533-20.227-0.236-25.131-8.391
							c-4.547,2.306-10.136-0.412-13.733-3.988c-7.796-7.751-10.669-19.932-7.137-30.266c-6.697-8.376-8.828-20.084-5.499-30.223"/>
					</g>
					<g style="opacity:0.2;">
						<g>
							<path style="fill:#421B36;" d="M232.094,194.264c0.208,1.771,3.062,2.87,6.373,2.455c3.311-0.416,5.827-2.189,5.618-3.96
								c-0.208-1.772-3.062-2.87-6.373-2.455C234.401,190.719,231.885,192.492,232.094,194.264z"/>
						</g>
					</g>
					<g style="opacity:0.2;">
						<g>
							<path style="fill:#421B36;" d="M204.483,197.731c0.208,1.771,3.062,2.87,6.373,2.455c3.311-0.416,5.827-2.189,5.618-3.96
								c-0.208-1.772-3.062-2.87-6.373-2.455C206.79,194.186,204.274,195.96,204.483,197.731z"/>
						</g>
					</g>
					<g>
						<g>
							<path style="fill:#944D4D;" d="M265.416,190.013c3.577-2.744,6.259-2,7.991-0.98c1.732,1.021,2.947,2.811,3.655,4.736
								c1.178,3.201,0.993,7.03-0.935,9.815c-1.928,2.786-5.719,4.205-8.776,2.882L265.416,190.013z"/>
						</g>
					</g>
					<g>
						<g>
							<g>
								<path style="fill:#421B36;" d="M272.741,197.898c-0.588-0.297-1.894-0.322-2.524-0.243
									c-1.051,0.131-1.643,0.755-2.283,1.551c-0.751,0.933-2.293,0.055-1.797-1.103c0.6-1.401,2.039-2.363,3.502-2.507
									c0.694-0.068,1.499,0.047,2.118,0.391c0.738,0.41,0.815,0.925,1.217,1.604C273.067,197.748,272.932,197.995,272.741,197.898
									L272.741,197.898z"/>
							</g>
						</g>
					</g>
					<g>
						<g>
							<g>
								<path style="fill:#421B36;" d="M208.818,174.134c3.029-4.57,9.278-4.613,12.428-0.274c4.424,6.096,2.675,17.1-0.468,23.377
									c-0.722,1.442-2.699,0.534-2.221-0.992c1.542-4.924,3.116-9.908,2.611-15.176c-0.351-3.662-1.726-7.819-5.972-8.107
									c-1.77-0.12-4.239,0.857-5.703,1.878C209.031,175.161,208.504,174.607,208.818,174.134L208.818,174.134z"/>
							</g>
						</g>
					</g>
				</g>
				<g>
					<g>
						<g>
							<path style="fill:#421B36;" d="M247.424,228.314c-4.458,4.974-10.764,7.688-17.3,7.98c-1.288,0.058-1.557-1.906-0.245-2.081
								c6.304-0.843,11.853-2.945,17.435-6.048C247.397,228.119,247.486,228.245,247.424,228.314L247.424,228.314z"/>
						</g>
					</g>
				</g>
			</g>
			<g>
				<g>
					<g>
						<path style="fill:#8380FF;" d="M290.03,248.025c-0.113-0.632,10.931,3.697,16.501,10.957
							c5.569,7.261,32.286,56.315,32.286,56.315s12.508,1.169,7.411,34.731c-2.697,17.76-8.106,27.438-26.327,21.898
							c-18.221-5.54-18.192-36.48-18.192-36.48S290.648,251.48,290.03,248.025z"/>
					</g>
				</g>
				<g>
					<g>
						<g>
							<path style="fill:#944D4D;" d="M317.488,294.088c0,0-5.129-2.478-7.04-9.421c-1.189-4.319-2.746-8.204-4.422-11.611
								c-1.464-2.976-4.4-7.344-2.635-9.136c1.764-1.792,4.448-2.021,6.866,0.401c2.418,2.422,3.915,5.25,5.648,9.044
								c0,0,0.929-5.354,2.236-10.514c1.166-4.602,4.253-21.731,8.475-20.612c0,0,3.066,0.434,2.348,3.961
								c-0.718,3.527-3.329,16.433-3.118,18.184c0.211,1.752-0.291,1.721,0.796,1.923c1.087,0.202,2.008-5.259,2.688-6.57
								c0.563-1.084,3.211-12.733,7.324-15.923c1.468-1.139,3.544-0.517,4.305,1.209c0.423,0.961,0.647,2.298,0.155,4.051
								c0,0,2.218-3.507,4.656-1.576c2.438,1.931,0.889,9.363,0.297,10.889c-0.592,1.525-3.891,10.286-3.142,11.623
								c0.749,1.337,1.051,0.648,1.772-0.151c0.722-0.799,6.539-8.678,11.451-8.57c3.996,0.088,3.35,4.02,0.543,6.812
								c-1.559,1.55-7.214,7.103-8.742,12.1c-1.529,4.997-4.497,10.41-5.505,12.241c-2.193,3.985-3.451,3.634-3.655,6.454
								c-0.203,2.819,1.452,21.901,1.452,21.901s-21.311,6.398-22.468-0.596C317.197,316.728,317.488,294.088,317.488,294.088z"/>
						</g>
						<g>
							<g>
								<path style="fill:#421B36;" d="M342.443,248.124c-3.016,6.762-5.175,13.876-6.44,21.205
									c-0.217,1.254-2.103,0.891-1.885-0.368c1.293-7.489,3.513-14.784,6.596-21.693
									C341.229,246.109,342.96,246.962,342.443,248.124L342.443,248.124z"/>
							</g>
						</g>
					</g>
					<g>
						<g>
							<path style="fill:#421B36;" d="M316.449,273.767c3.772-0.812,7.908,0.324,10.773,2.995c2.969,2.767,4.423,6.925,4.017,11.01
								c-0.126,1.267-2.011,0.895-1.885-0.368c0.341-3.436-1.001-7.004-3.528-9.273c-2.518-2.261-5.978-3.086-9.22-2.389
								c-0.511,0.11-0.991-0.42-1.035-0.906C315.52,274.248,315.944,273.875,316.449,273.767L316.449,273.767z"/>
						</g>
					</g>
					<g>
						<g>
							<path style="fill:#421B36;" d="M342.252,321.915c-9.254,2.006-19.583,3.85-27.859-2.196c-1.009-0.737,0.239-2.244,1.24-1.512
								c7.775,5.68,17.829,3.604,26.462,1.732C343.3,319.678,343.446,321.656,342.252,321.915L342.252,321.915z"/>
						</g>
					</g>
				</g>
			</g>
			<g>
				<path style="fill:#8380FF;" d="M304.651,339.64c-16.358,9.402-35.217,14.76-55.258,14.76c-9.622,0-18.967-1.237-27.898-3.567
					c-8.931-17.519-23.669-51.151-15.444-88.773c-0.153-0.222-0.399,0.46,0,0c2.793-3.171,20.799-11.442,32.032-14.676
					c12.844-3.71,56.716-6.58,62.302,8.403C304.943,267.978,306.354,316.588,304.651,339.64z"/>
			</g>
			<g>
				<path style="fill:#8380FF;" d="M167.222,319.829c0,0,12.601-29.835,28.317-48.035c5.896-6.828,12.229-12.018,18.501-13.383
					c22.989-5.001-1.569,89.657-1.569,89.657S178.614,335.825,167.222,319.829z"/>
			</g>
			<g>
				<g>
					<g>
						<g>
							<path style="fill:#944D4D;" d="M165.347,309.813c0,0-2.598-5.274-5.973-6.127c-4.373-1.105-16.056,2.028-17.864,6.335
								c-1.808,4.308,3.006,7.341,5.3,6.417c2.294-0.924,7.447-4.293,9.877-4.554c2.202-0.237,2.685,1.219,2.685,1.219
								s-10.98,5.955-10.586,10.974c0.395,5.019,4.793,4.062,4.793,4.062s0.01,7.538,7.931,4.997c0,0,2.546,2.904,6.062,2.271
								c3.516-0.633,10.452-5.286,10.452-5.286s5.23,5.578,6.113,4.889c2.946-2.302-0.376-15.813-4.941-16.039
								c0,0-2.637-4.599-6.113-5.098l-1.703-0.03C171.38,313.844,169.041,308.925,165.347,309.813z"/>
						</g>
					</g>
				</g>
				<g>
					<g>
						<g>
							<path style="fill:#421B36;" d="M179.783,319.852c-6.624,1.797-15.45,4.555-16.678,12.754
								c-0.141,0.944-1.575,0.801-1.433-0.148c1.345-8.981,10.549-12.086,17.886-14.077
								C180.453,318.139,180.673,319.61,179.783,319.852L179.783,319.852z"/>
						</g>
					</g>
				</g>
				<g>
					<g>
						<g>
							<path style="fill:#421B36;" d="M172.491,314.79c-3.799,1.284-7.414,3.099-10.693,5.466c-1.603,1.157-3.137,2.43-4.556,3.822
								c-1.221,1.197-2.376,2.567-2.36,4.4c0.009,0.957-1.424,0.801-1.433-0.148c-0.016-1.778,0.9-3.264,2.036-4.527
								c1.407-1.565,3.05-2.938,4.717-4.194c3.562-2.685,7.516-4.763,11.705-6.179C172.779,313.135,173.373,314.492,172.491,314.79
								L172.491,314.79z"/>
						</g>
					</g>
				</g>
				<g>
					<g>
						<g>
							<path style="fill:#421B36;" d="M167.183,310.436c-5.365,1.48-10.265,4.386-14.254,8.37c-0.666,0.665-1.575-0.49-0.912-1.151
								c4.179-4.174,9.33-7.14,14.941-8.688C167.852,308.72,168.072,310.191,167.183,310.436L167.183,310.436z"/>
						</g>
					</g>
				</g>
				<g>
					<g>
						<g>
							<path style="fill:#421B36;" d="M146.974,306.393c0.17,1.546-0.327,3.074-1.375,4.191c-1.035,1.104-2.594,1.627-4.062,1.446
								c-0.921-0.113-0.779-1.594,0.143-1.48c1.075,0.132,2.176-0.236,2.937-1.044c0.707-0.75,1.048-1.847,0.934-2.881
								C145.447,305.678,146.869,305.438,146.974,306.393L146.974,306.393z"/>
						</g>
					</g>
				</g>
				<g>
					<g>
						<g>
							<path style="fill:#421B36;" d="M153.434,318.843c0.683,1.321,0.723,3.013,0.073,4.357c-0.715,1.477-2.148,2.522-3.749,2.674
								c-0.387,0.037-0.76-0.203-0.824-0.618c-0.058-0.378,0.21-0.814,0.599-0.851c1.114-0.106,2.163-0.765,2.663-1.805
								c0.485-1.01,0.427-2.175-0.079-3.154c-0.183-0.355,0.03-0.827,0.367-0.982C152.861,318.291,153.25,318.487,153.434,318.843
								L153.434,318.843z"/>
						</g>
					</g>
				</g>
				<g>
					<g>
						<g>
							<path style="fill:#421B36;" d="M155.919,324.586c1.51,0.77,2.644,2.322,2.745,4.093c0.097,1.685-0.638,3.374-1.978,4.361
								c-0.317,0.233-0.755,0.221-1.013-0.104c-0.234-0.296-0.217-0.812,0.101-1.047c0.92-0.678,1.515-1.807,1.467-2.977
								c-0.05-1.232-0.784-2.4-1.824-2.931c-0.348-0.178-0.569-0.553-0.424-0.956C155.118,324.678,155.568,324.408,155.919,324.586
								L155.919,324.586z"/>
						</g>
					</g>
				</g>
				<g>
					<g>
						<g>
							<path style="fill:#421B36;" d="M166.07,326.039c1.608,1.214,2.287,3.64,1.395,5.518c-0.921,1.94-3.108,2.911-5.111,2.352
								c-0.376-0.105-0.551-0.604-0.424-0.957c0.146-0.406,0.549-0.543,0.926-0.438c1.253,0.35,2.759-0.377,3.297-1.558
								c0.589-1.294,0.147-2.902-0.915-3.703C164.489,326.689,165.321,325.474,166.07,326.039L166.07,326.039z"/>
						</g>
					</g>
				</g>
			</g>
			<g>
				<path style="fill:#944D4D;" d="M282.219,245.599c-5.329,12.379-16.9,21.67-29.827,23.949
					c-12.927,2.279-26.316-4.08-35.317-13.933c0,0,9.353-5.184,24.145-10.016C255.9,240.803,282.219,245.599,282.219,245.599z"/>
			</g>
			<g>
				<g>
					<path style="fill:#421B36;" d="M303.795,344.736c-2.057-18.397-4.754-36.718-8.094-54.926
						c-0.185-1.007-1.721-0.581-1.536,0.424c3.314,18.068,5.996,36.247,8.037,54.503
						C302.314,345.744,303.909,345.755,303.795,344.736L303.795,344.736z"/>
				</g>
			</g>
			<g>
				<g>
					<path style="fill:#421B36;" d="M222.183,350.431c-1.826-4.282-3.651-8.565-5.477-12.847c-0.254-0.596-0.433-1.122-0.852-1.605
						c-1.76-2.027-3.557-3.81-4.948-6.151c-2.696-4.537-4.134-9.786-4.055-15.067c0.094-6.273,2.266-12.462,6.136-17.402
						c0.22-0.281,0.321-0.636,0.125-0.965c-1.192-1.997-2.383-3.994-3.575-5.99c-0.525-0.88-1.903-0.079-1.376,0.804
						c1.192,1.997,2.383,3.993,3.575,5.99c0.042-0.322,0.083-0.644,0.125-0.965c-6.637,8.472-8.478,20.053-4.447,30.087
						c0.979,2.436,2.241,4.748,3.812,6.853c0.698,0.936,1.442,1.837,2.244,2.686c0.453,0.479,1.059,0.902,1.4,1.447
						c0.488,0.78,0.767,1.798,1.127,2.643c0.621,1.457,1.242,2.914,1.864,4.371c0.982,2.305,1.965,4.609,2.948,6.914
						C221.208,352.175,222.581,351.364,222.183,350.431L222.183,350.431z"/>
				</g>
			</g>
			<g>
				<path style="fill:#A0D2F4;" d="M227.975,352.315c0,0-21.08-41.113-13.6-47.144c7.48-6.031,71.901-13.968,75.654-8.375
					c3.753,5.593,5.721,47.94,5.721,47.94S263.044,360.064,227.975,352.315z"/>
			</g>
			<g>
				<g>
					<path style="fill:#421B36;" d="M310.011,347.069c0.034-5.597,0.326-11.189,0.908-16.756c0.284-2.721,0.564-5.47,1.075-8.159
						c0.423-2.227,1.821-6.444,4.842-5.738c0.997,0.233,1.423-1.303,0.424-1.536c-5.895-1.377-6.926,7.267-7.427,11.112
						c-0.911,6.99-1.371,14.029-1.415,21.078C308.411,348.094,310.005,348.095,310.011,347.069L310.011,347.069z"/>
				</g>
			</g>
			<g>
				<path style="fill:#A0D2F4;" d="M220.731,303.144c0,0-17.126-38.879-15.236-41.414c1.89-2.536,4.715-2.632,4.715-2.632
					l16.503,42.951L220.731,303.144z"/>
			</g>
			<g>
				<path style="fill:#A0D2F4;" d="M277.576,297.633c0,0,4.191-51.273,7.357-51.433s7.092,1.765,7.092,1.765l-8.385,49.669H277.576z
					"/>
			</g>
			<g>
				<path style="fill:#421B36;" d="M316.882,302.147c0,0-0.206,3.943,0.165,5.087c0.371,1.144,19.735,2.843,22.246,1.739
					c0,0,0.864-6.729-0.44-6.856C337.549,301.99,318.739,301.909,316.882,302.147z"/>
			</g>
			<g>
				<g>
					<path style="fill:#8380FF;" d="M265.078,161.139c4.947,4.166,8.048,10.02,9.106,16.369c0.045,0.269,0.357,0.378,0.588,0.334
						c6.51-1.248,13.26,1.164,17.691,6.062c4.403,4.867,6.297,11.65,5.67,18.117c-0.059,0.612,0.897,0.608,0.956,0
						c0.667-6.873-1.484-14.098-6.282-19.151c-4.677-4.926-11.614-7.23-18.289-5.95c0.196,0.111,0.392,0.223,0.588,0.334
						c-1.082-6.49-4.296-12.533-9.352-16.791C265.286,160.069,264.606,160.742,265.078,161.139L265.078,161.139z"/>
				</g>
			</g>
			<g>
				<g>
					<path style="fill:#8380FF;" d="M299.041,202.872c7.534-2.003,15.759-0.208,21.741,4.821c5.633,4.735,9.015,11.786,9.646,19.072
						c0.053,0.608,1.009,0.614,0.956,0c-0.665-7.683-4.245-15.161-10.294-20.052c-6.22-5.028-14.577-6.817-22.303-4.762
						C298.193,202.108,298.445,203.03,299.041,202.872L299.041,202.872z"/>
				</g>
			</g>
			<g>
				<g>
					<path style="fill:#8380FF;" d="M282.26,219.605c5.835-2.099,12.609-0.706,17.022,3.708c4.378,4.378,5.932,11.081,4.328,17
						c-0.087,0.32,0.155,0.579,0.461,0.605c6.443,0.544,12.303,3.771,16.374,8.767c0.389,0.477,1.062-0.203,0.676-0.676
						c-4.235-5.197-10.363-8.482-17.05-9.046c0.154,0.202,0.307,0.403,0.461,0.605c1.692-6.244,0.042-13.314-4.574-17.93
						c-4.638-4.638-11.806-6.164-17.953-3.954C281.431,218.89,281.679,219.814,282.26,219.605L282.26,219.605z"/>
				</g>
			</g>
			<g>
				<g>
					<path style="fill:#8380FF;" d="M197.529,225.781c-6.816,6.007-8.647,16.499-4.617,24.57c0.159-0.39,0.317-0.78,0.476-1.17
						c-10.671,3.467-15.142,16.043-9.823,25.74c0.493,0.899,1.87,0.096,1.376-0.804c-4.812-8.772-0.813-20.254,8.87-23.4
						c0.512-0.166,0.712-0.697,0.476-1.17c-3.724-7.458-1.892-17.122,4.368-22.638C199.426,226.228,198.296,225.105,197.529,225.781
						L197.529,225.781z"/>
				</g>
			</g>
			<g>
				<g>
					<path style="fill:#421B36;" d="M263.171,152.477c0.768-6.075,8.069-9.766,13.691-8.943c6.476,0.948,10.415,8.367,8.671,14.409
						c-0.256,0.888,0.977,1.362,1.456,0.614c2.289-3.571,6.96-4.299,10.847-3.506c4.243,0.866,8.007,3.349,10.572,6.823
						c0.602,0.816,1.986,0.022,1.376-0.804c-3.003-4.068-7.436-6.978-12.482-7.723c-4.372-0.646-9.186,0.501-11.689,4.405
						c0.485,0.205,0.971,0.409,1.456,0.614c2.007-6.952-2.587-15.341-9.993-16.404c-6.679-0.959-14.606,3.461-15.498,10.514
						C261.449,153.492,263.044,153.483,263.171,152.477L263.171,152.477z"/>
				</g>
			</g>
			<g>
				<g>
					<path style="fill:#421B36;" d="M225.54,156.969c8.605,13.918,22.663,24.195,38.691,27.705c0.999,0.219,1.426-1.317,0.424-1.536
						c-15.633-3.424-29.341-13.389-37.739-26.973C226.377,155.294,224.999,156.093,225.54,156.969L225.54,156.969z"/>
				</g>
			</g>
		</g>
		<g>
			<g>
				<circle style="fill:#8380FF;" cx="277.576" cy="317.371" r="7.383"/>
			</g>
			<g>
				<path style="fill:#A0D2F4;" d="M271.759,321.918c0,0-0.272-3.066,4.524-5.148c4.796-2.081,8.053,0.601,8.053,0.601
					S283.613,328.333,271.759,321.918z"/>
			</g>
			<g>
				<path style="fill:#421B36;" d="M277.577,325.392c-4.423,0-8.021-3.598-8.021-8.021s3.598-8.021,8.021-8.021
					c4.422,0,8.019,3.598,8.019,8.021S281.999,325.392,277.577,325.392z M277.577,310.626c-3.72,0-6.746,3.026-6.746,6.746
					s3.026,6.746,6.746,6.746c3.718,0,6.745-3.026,6.745-6.746S281.295,310.626,277.577,310.626z"/>
			</g>
		</g>
	</g>
</g>
</svg>
